/* XPM */
static char *chat_xpm[] = {
/* columns rows colors chars-per-pixel */
"32 32 5 1",
"  c Gray0",
". c #bbbbbbbbbbbb",
"X c #ffff99999999",
"o c #ffffcccc9999",
"O c Gray100",
/* pixels */
"                                ",
" oooooooX oooooooooooo Xooooooo ",
" ooooooX oooooooooooooo Xoooooo ",
" ooooooX oooooooooooooo Xoooooo ",
" ooooooX o   oooooo   o Xoooooo ",
" oooooooX     oooo     Xooooooo ",
" oooXooooXXXXX    XXXXXooooXooo ",
" XXX oooooooooXXXXooooooooo XXo ",
"    oooooooooooooooooooooooo  o ",
" XX XXooooooooooooooooooooXX Xo ",
" oo   XoooooooooooooooooXX   oo ",
" oo .  XXXXXXXXXXXXXXXXX  .. oo ",
" oo ..                   .O. oo ",
" oo  O. ... .... ... ... OO  oo ",
" oo O O OOO OOOO OOO OOO O O oo ",
" oo OO  OOO OOOO OOO OOO  OO oo ",
" ooX OOO                OOO Xoo ",
" ooo  OOOOOOOOOOOOOOOOOOOOO ooo ",
" oooX OOOOOOOOOOOOOOOOOOOO Xooo ",
" ooooX  OOOOOOOOOOOOOOOO   Xooo ",
" ooooX O                O Xoooo ",
" oooooX .OO OOOO OOO OO. Xooooo ",
" ooooooX OO OOOO OOO OO. Xooooo ",
" ooooooo .. .... ... .. Xoooooo ",
" oooooooX              Xooooooo ",
" oooooooooooooooooooooooooooooo ",
" ooooooX ooooooooooooooo Xooooo ",
" oooooooX ooooooooooooo Xoooooo ",
" ooooooooX             Xooooooo ",
" ooooooooooXXXXXXXXXXXooooooooo ",
" oooooooooooooooooooooooooooooo ",
"                                "
};
