/* XPM */
static char *globe_xpm[] = {
/* columns rows colors chars-per-pixel */
"32 32 7 1",
"  c Gray0",
". c #333366660000",
"X c #00003333ffff",
"o c #33336666ffff",
"O c #333399993333",
"+ c #333399996666",
"@ c Gray100",
/* pixels */
"@@@@@@@@@@@@        @@@@@@@@@@@@",
"@@@@@@@@@   XXXXXXXX   @@@@@@@@@",
"@@@@@@@  XXXXXXXXXXX OO  @@@@@@@",
"@@@@@@ XXoXoXo oX XX ++O  @@@@@@",
"@@@@@    XoXo +  + XX  +++ @@@@@",
"@@@@ OOO.  o . oX XXXX    + @@@@",
"@@@  +++O.O O.. XX XXXXXXX X @@@",
"@@ + +++++.+++ oX .  oXoXXXXX @@",
"@@  O+O+++O++.. o O.. oXXXXXX @@",
"@ XX  OO+OO++O++ +OO. XoXoXXXX @",
"@ XXXX OOOO+O+O++OO. XoXXXXXXX @",
"@ Xooo OOOOOOO++OO. ooXoXoXoXX @",
" XoooXo OOOOO+++O. XoXoXoXXXXXX ",
" oooooX OOOO+O++.. oXoXoXoXXXXX ",
" Xoooo OOOOOO++.. oXoXoXXXoXXXX ",
" oooooo OOOOO++O. ooooXoXoXoXXX ",
" Xooooo OOO++++.. oXoXoXoXXXXXX ",
" oXoooo  OO+++... ooXoXoXoXXXXX ",
" XXXooooX O+O..  + XoXoXXXXXXXX ",
" XXoooooo O+.. oo ooooXoXoXoXXX ",
"@ XXoXoooo +. oXoXoXoXoXXXXXXX @",
"@ XoXooooo +O ooXoXoXoXoXoXXXX @",
"@ XXXXoXoX ++ oXXXoXXXXXXXXXXX @",
"@@ oXoXooo .OO oXoXoXoXoXXXXX @@",
"@@ XXXXXoXo ... XXXXXXXXXXXXX @@",
"@@@ XoXoXoXo   + XXXXX  XXXX @@@",
"@@@@ XXXXXXXXXo   XXX  + XX @@@@",
"@@@@@ XXXoXoXoXoXX   OOO+  @@@@@",
"@@@@@@ XXXXXXXXXXXX OO+++ @@@@@@",
"@@@@@@@  XXXXXXXXX ++++  @@@@@@@",
"@@@@@@@@@   XXXXXX     @@@@@@@@@",
"@@@@@@@@@@@@        @@@@@@@@@@@@"
};
