/* XPM */
static char * goto_xpm[] = {
"32 32 58 1",
" 	c None",
".	c #FFFFFF",
"+	c #939D95",
"@	c #1A1A1A",
"#	c #7D7F7E",
"$	c #FFFFFD",
"%	c #FEFEFF",
"&	c #FFFEFF",
"*	c #989898",
"=	c #181818",
"-	c #181A19",
";	c #807E81",
">	c #969B97",
",	c #151918",
"'	c #0001FE",
")	c #171916",
"!	c #808080",
"~	c #FEFFFA",
"{	c #999999",
"]	c #181A17",
"^	c #0000FD",
"/	c #0201FF",
"(	c #191A1C",
"_	c #FEFEFC",
":	c #9A9995",
"<	c #191919",
"[	c #0100FE",
"}	c #0000FE",
"|	c #1D191A",
"1	c #7E7E80",
"2	c #0101FF",
"3	c #0200FE",
"4	c #1B1B1B",
"5	c #CBCBC9",
"6	c #979996",
"7	c #0001FC",
"8	c #1B1A18",
"9	c #7C7D7F",
"0	c #CACFCB",
"a	c #99999B",
"b	c #161A19",
"c	c #7F817E",
"d	c #CECCCF",
"e	c #989896",
"f	c #161B15",
"g	c #0000FB",
"h	c #7E807F",
"i	c #CCCECD",
"j	c #FDFEFF",
"k	c #9A989B",
"l	c #19191B",
"m	c #7C817D",
"n	c #CCCCCC",
"o	c #FEFFFF",
"p	c #FEFEFE",
"q	c #1A1917",
"r	c #7F7F7F",
"s	c #CCCBC9",
"................................",
"................................",
"................................",
"................................",
"................................",
"................................",
"................................",
"................................",
"................................",
"................................",
"................................",
"............+@#$%$.&............",
"............*=-;.&$.............",
"............>,')!~.&............",
"............{]^/(!._............",
"............:<^[}|1.............",
"............*-[23}45............",
"............6]7'/890............",
"............a@}7bcd$............",
"............efg<hi$j............",
"............k<lmnop.............",
"............*qrs%&$o............",
"................................",
"................................",
"................................",
"................................",
"................................",
"................................",
"................................",
"................................",
"................................",
"................................"};
