/* XPM */
static char *oldroom_xpm[] = {
"16 14 4 1",
" 	c None",
".	c red",
"X	c white",
"o	c gray50",
"                ",
"                ",
"                ",
"                ",
"      ...       ",
"     .XX..      ",
"     .XX..o     ",
"     .....o     ",
"      ...oo     ",
"       ooo      ",
"                ",
"                ",
"                ",
"                "};
