/* XPM */
static char *who_xpm[] = {
/* columns rows colors chars-per-pixel */
"32 32 10 1",
"  c Gray100",
". c #ffff99990000",
"X c #cccc66660000",
"o c #eeee00000000",
"O c #dddd00000000",
"+ c #aaaa00000000",
"@ c #00000000dddd",
"# c #00000000bbbb",
"$ c #00000000aaaa",
"% c #888888888888",
/* pixels */
"                                ",
"                                ",
"                      $$$%      ",
"       +++%          $###$%     ",
"      +OOO+%        $#@@@#$%    ",
"     +OoooO+%       $#@@@#$%    ",
"     +OoooO+%       $#@@@#$%    ",
"     +OoooO+% XXX%   $#@#$%     ",
"      +OoO+% X...X%   $@$%      ",
"       +o+%  X...X%   $@$%      ",
"     ++OoO++%X...X% $$@@@$$%    ",
"    +OOoooOO+%X.X% $##@@@@#$%   ",
"    +ooooooO+%X.X%$#@@@@@@@#$   ",
"   +OooooooO+X...X$#@@@@@@@@$%  ",
"  +OooooooO+X.....X$#@@@@@@##$% ",
"  +O+OoooO+X.......X$#@@@@$$##$ ",
" +O+ +OoO+X.X.....X.X$#@@@$%$@$%",
" ++  +OO+XXX%X...X%XXX$#@@$% $#$",
"++   +OoO+++%X...X% $$#@@@$%  $$",
"+    +OooOO+%X...X% $#@@@@$%   $",
"     +OoooO+%X...X% $@@@@@$%    ",
"     +OoooO+%X.X.X% $@@$@@$%    ",
"     +OoooO+%XX XX% $@$ $@$%    ",
"      +o o+% XX XX% $@$ $@$%    ",
"      +o o+% XX XX% $@$ $@$%    ",
"      +o o+% XX XX% $@$ $@$%    ",
"      +o o+% XX XX% $@$ $@$%    ",
"      +o o+% XX XX% $@$ $@$%    ",
"      +   +% X   X% $$   $$%    ",
"                                ",
"                                ",
"                                "
};
