/* XPM */
static char * xglobe_xpm[] = {
"32 32 49 1",
" 	c None",
".	c #FFFFFF",
"+	c #000000",
"@	c #0033FF",
"#	c #339933",
"$	c #3366FF",
"%	c #339966",
"&	c #600606",
"*	c #DB0F0F",
"=	c #DB142B",
"-	c #E11A2B",
";	c #E1201A",
">	c #B93A2B",
",	c #AA1B5A",
"'	c #F72B2B",
")	c #FBA1A1",
"!	c #9F4D1F",
"~	c #F71111",
"{	c #F84040",
"]	c #FDCCCC",
"^	c #5B7C53",
"/	c #9F4D36",
"(	c #CF210D",
"_	c #890909",
":	c #891F7A",
"<	c #6025A1",
"[	c #EA121C",
"}	c #EA1010",
"|	c #330202",
"1	c #336600",
"2	c #E12014",
"3	c #B93A1B",
"4	c #F41212",
"5	c #7F6325",
"6	c #ED1510",
"7	c #5B7C2B",
"8	c #7F44A1",
"9	c #ED1712",
"0	c #ED151C",
"a	c #F41211",
"b	c #5B53CC",
"c	c #9F367A",
"d	c #CF2140",
"e	c #ED1715",
"f	c #7F4406",
"g	c #332BCC",
"h	c #7F6344",
"i	c #C51740",
"j	c #F41214",
"............++++++++............",
".........+++@@@@@@@@+++.........",
".......++@@@@@@@@@@@+##++.......",
"......+@@$@$@$+$@+@@+%%#++......",
".....+&**=-=-*;**>+,=**;;;*'')..",
"....+#!~~~~~~~~~~*@=~~~~~~~~{]..",
"...++%^/!(~~~~~_:<+<:[~~~~}:|...",
"..+%+%%%%/~~~~~~@+1++-~~~@@@@+..",
"..++#%#%%%2~~~~~$+#11*~~@@@@@+..",
".+@@++##%#34~~~~&%#56~[$@$@@@@+.",
".+@@@@+####;~~~~;#76~[8@@@@@@@+.",
".+@$$$+####2~~~~9!(~08@$@$@$@@+.",
"+@$$$@$+###3a~~~~~~[8@$@$@@@@@@+",
"+$$$$$@+####;~~~~~}b@$@$@$@@@@@+",
"+@$$$$+#####5~~~~~-@$@$@@@$@@@@+",
"+$$$$$$+#####~~~~~-$$$@$@$@$@@@+",
"+@$$$$$+###%%~~~~~~:$@$@$@@@@@@+",
"+$@$$$$++##%;~~~~~~c@$@$@$@@@@@+",
"+@@@$$$$@+#;~~~~~~~~c@$@@@@@@@@+",
"+@@$$$$$$|9~61+~~~~~c$@$@$@$@@@+",
".+@@$@$$bd~ef+$=~~~~dg$@@@@@@@+.",
".+@$@$$bd~}h#+$$~~~~~c@$@$@@@@+.",
".+@@@@8[~[|%%+$@~~~~~[<@@@@@@@+.",
"..+$@$[~~-+1##+$i~~~~~:$@@@@@+..",
"..+@@=~~~=$+111+:~~~~~[@@@@@@+..",
"...+@~~~~j=-&+*;}~~~~~~*=,@@+...",
"....+~~~~~~~:@~~~~~~~~~~~=@+....",
".....+@@@$@$@$@$@@+++###%++.....",
"......+@@@@@@@@@@@@+##%%%+......",
".......++@@@@@@@@@+%%%%++.......",
".........+++@@@@@@+++++.........",
"............++++++++............"};
